<svg xmlns="http://www.w3.org/2000/svg" viewBox="0 0 1920 1080" width="1920" height="1080" preserveAspectRatio="xMidYMid slice"><rect width="1920" height="1080" fill="#f4f1ea"/><path d="M 0,154.0 L 48,126.9 L 96,99.9 L 144,73.7 L 192,48.8 L 240,25.9 L 288,5.5 L 336,-11.8 L 384,-25.6 L 432,-35.5 L 480,-41.5 L 528,-43.2 L 576,-40.6 L 624,-33.9 L 672,-23.1 L 720,-8.6 L 768,9.3 L 816,30.2 L 864,53.5 L 912,78.8 L 960,105.2 L 1008,132.3 L 1056,159.3 L 1104,185.5 L 1152,210.4 L 1200,233.3 L 1248,253.7 L 1296,271.0 L 1344,284.8 L 1392,294.7 L 1440,300.7 L 1488,302.4 L 1536,299.8 L 1584,293.1 L 1632,282.3 L 1680,267.8 L 1728,249.9 L 1776,229.0 L 1824,205.7 L 1872,180.4 L 1920,154.0" stroke="#8a6f53" stroke-width="1" fill="none" opacity="0.50"/><path d="M 0,156.8 L 48,135.0 L 96,116.0 L 144,100.3 L 192,88.2 L 240,80.0 L 288,76.0 L 336,76.3 L 384,80.7 L 432,89.3 L 480,101.8 L 528,118.0 L 576,137.3 L 624,159.4 L 672,183.7 L 720,209.5 L 768,236.3 L 816,263.4 L 864,290.2 L 912,315.9 L 960,340.0 L 1008,361.8 L 1056,380.8 L 1104,396.5 L 1152,408.6 L 1200,416.8 L 1248,420.8 L 1296,420.5 L 1344,416.1 L 1392,407.5 L 1440,395.0 L 1488,378.8 L 1536,359.5 L 1584,337.4 L 1632,313.1 L 1680,287.3 L 1728,260.5 L 1776,233.4 L 1824,206.6 L 1872,180.9 L 1920,156.8" stroke="#8a6f53" stroke-width="1" fill="none" opacity="0.44"/><path d="M 0,202.8 L 48,196.5 L 96,194.4 L 144,196.6 L 192,203.0 L 240,213.4 L 288,227.6 L 336,245.2 L 384,265.9 L 432,289.0 L 480,314.1 L 528,340.5 L 576,367.5 L 624,394.5 L 672,420.9 L 720,445.9 L 768,469.0 L 816,489.6 L 864,507.2 L 912,521.3 L 960,531.6 L 1008,537.9 L 1056,540.0 L 1104,537.8 L 1152,531.4 L 1200,521.0 L 1248,506.8 L 1296,489.2 L 1344,468.5 L 1392,445.4 L 1440,420.3 L 1488,393.9 L 1536,366.9 L 1584,339.9 L 1632,313.5 L 1680,288.5 L 1728,265.4 L 1776,244.8 L 1824,227.2 L 1872,213.1 L 1920,202.8" stroke="#8a6f53" stroke-width="1" fill="none" opacity="0.38"/><path d="M 0,326.0 L 48,338.2 L 96,354.0 L 144,373.1 L 192,395.0 L 240,419.1 L 288,444.8 L 336,471.6 L 384,498.7 L 432,525.5 L 480,551.3 L 528,575.5 L 576,597.6 L 624,616.8 L 672,632.9 L 720,645.3 L 768,653.8 L 816,658.2 L 864,658.3 L 912,654.2 L 960,646.0 L 1008,633.8 L 1056,618.0 L 1104,598.9 L 1152,577.0 L 1200,552.9 L 1248,527.2 L 1296,500.4 L 1344,473.3 L 1392,446.5 L 1440,420.7 L 1488,396.5 L 1536,374.4 L 1584,355.2 L 1632,339.1 L 1680,326.7 L 1728,318.2 L 1776,313.8 L 1824,313.7 L 1872,317.8 L 1920,326.0" stroke="#8a6f53" stroke-width="1" fill="none" opacity="0.32"/><path d="M 0,524.5 L 48,549.4 L 96,575.7 L 144,602.7 L 192,629.8 L 240,656.2 L 288,681.4 L 336,704.7 L 384,725.5 L 432,743.4 L 480,757.8 L 528,768.5 L 576,775.1 L 624,777.6 L 672,775.8 L 720,769.8 L 768,759.7 L 816,745.8 L 864,728.4 L 912,708.0 L 960,685.1 L 1008,660.2 L 1056,633.9 L 1104,606.9 L 1152,579.8 L 1200,553.4 L 1248,528.2 L 1296,504.9 L 1344,484.1 L 1392,466.2 L 1440,451.8 L 1488,441.1 L 1536,434.5 L 1584,432.0 L 1632,433.8 L 1680,439.8 L 1728,449.9 L 1776,463.8 L 1824,481.2 L 1872,501.6 L 1920,524.5" stroke="#8a6f53" stroke-width="1" fill="none" opacity="0.26"/><path d="M 0,760.8 L 48,786.7 L 96,811.1 L 144,833.3 L 192,852.9 L 240,869.2 L 288,882.0 L 336,890.8 L 384,895.6 L 432,896.1 L 480,892.4 L 528,884.5 L 576,872.6 L 624,857.1 L 672,838.3 L 720,816.6 L 768,792.7 L 816,767.1 L 864,740.4 L 912,713.3 L 960,686.4 L 1008,660.5 L 1056,636.1 L 1104,613.9 L 1152,594.3 L 1200,578.0 L 1248,565.2 L 1296,556.4 L 1344,551.6 L 1392,551.1 L 1440,554.8 L 1488,562.7 L 1536,574.6 L 1584,590.1 L 1632,608.9 L 1680,630.6 L 1728,654.5 L 1776,680.1 L 1824,706.8 L 1872,733.9 L 1920,760.8" stroke="#8a6f53" stroke-width="1" fill="none" opacity="0.20"/><path d="M 0,979.5 L 48,994.3 L 96,1005.3 L 144,1012.3 L 192,1015.1 L 240,1013.7 L 288,1008.1 L 336,998.3 L 384,984.8 L 432,967.7 L 480,947.5 L 528,924.8 L 576,900.0 L 624,873.8 L 672,846.8 L 720,819.8 L 768,793.2 L 816,767.9 L 864,744.5 L 912,723.4 L 960,705.3 L 1008,690.5 L 1056,679.5 L 1104,672.5 L 1152,669.7 L 1200,671.1 L 1248,676.7 L 1296,686.5 L 1344,700.0 L 1392,717.1 L 1440,737.3 L 1488,760.0 L 1536,784.8 L 1584,811.0 L 1632,838.0 L 1680,865.0 L 1728,891.6 L 1776,916.9 L 1824,940.3 L 1872,961.4 L 1920,979.5" stroke="#8a6f53" stroke-width="1" fill="none" opacity="0.14"/><path d="M 0,1133.8 L 48,1130.4 L 96,1122.9 L 144,1111.4 L 192,1096.2 L 240,1077.6 L 288,1056.2 L 336,1032.5 L 384,1007.0 L 432,980.4 L 480,953.3 L 528,926.3 L 576,900.3 L 624,875.8 L 672,853.3 L 720,833.5 L 768,816.9 L 816,803.8 L 864,794.6 L 912,789.5 L 960,788.6 L 1008,792.0 L 1056,799.5 L 1104,811.0 L 1152,826.2 L 1200,844.8 L 1248,866.2 L 1296,889.9 L 1344,915.4 L 1392,942.0 L 1440,969.1 L 1488,996.1 L 1536,1022.1 L 1584,1046.6 L 1632,1069.1 L 1680,1088.9 L 1728,1105.5 L 1776,1118.6 L 1824,1127.8 L 1872,1132.9 L 1920,1133.8" stroke="#8a6f53" stroke-width="1" fill="none" opacity="0.08"/><path d="M 0,63.2 L 48,99.7 L 96,137.0 L 144,174.0 L 192,210.0 L 240,244.0 L 288,275.1 L 336,302.7 L 384,326.1 L 432,344.5 L 480,357.7 L 528,365.3 L 576,367.1 L 624,363.0 L 672,353.2 L 720,337.9 L 768,317.4 L 816,292.3 L 864,263.2 L 912,230.9 L 960,196.0 L 1008,159.5 L 1056,122.2 L 1104,85.2 L 1152,49.2 L 1200,15.2 L 1248,-15.9 L 1296,-43.5 L 1344,-66.9 L 1392,-85.3 L 1440,-98.5 L 1488,-106.1 L 1536,-107.9 L 1584,-103.8 L 1632,-94.0 L 1680,-78.7 L 1728,-58.2 L 1776,-33.1 L 1824,-4.0 L 1872,28.3 L 1920,63.2" stroke="#6f6f6a" stroke-width="1" fill="none" opacity="0.25"/><path d="M 0,344.6 L 48,377.4 L 96,407.0 L 144,432.7 L 192,453.9 L 240,470.0 L 288,480.7 L 336,485.6 L 384,484.7 L 432,478.0 L 480,465.7 L 528,447.9 L 576,425.3 L 624,398.3 L 672,367.6 L 720,334.0 L 768,298.3 L 816,261.3 L 864,224.1 L 912,187.4 L 960,152.2 L 1008,119.4 L 1056,89.8 L 1104,64.1 L 1152,42.9 L 1200,26.8 L 1248,16.1 L 1296,11.2 L 1344,12.1 L 1392,18.8 L 1440,31.1 L 1488,48.9 L 1536,71.5 L 1584,98.5 L 1632,129.2 L 1680,162.8 L 1728,198.5 L 1776,235.5 L 1824,272.7 L 1872,309.4 L 1920,344.6" stroke="#6f6f6a" stroke-width="1" fill="none" opacity="0.22"/><path d="M 0,580.7 L 48,594.4 L 96,602.5 L 144,604.8 L 192,601.2 L 240,591.9 L 288,577.0 L 336,557.0 L 384,532.3 L 432,503.5 L 480,471.4 L 528,436.7 L 576,400.3 L 624,363.1 L 672,326.0 L 720,289.9 L 768,255.7 L 816,224.2 L 864,196.3 L 912,172.6 L 960,153.7 L 1008,140.0 L 1056,131.9 L 1104,129.6 L 1152,133.2 L 1200,142.5 L 1248,157.4 L 1296,177.4 L 1344,202.1 L 1392,230.9 L 1440,263.0 L 1488,297.7 L 1536,334.1 L 1584,371.3 L 1632,408.4 L 1680,444.5 L 1728,478.7 L 1776,510.2 L 1824,538.1 L 1872,561.8 L 1920,580.7" stroke="#6f6f6a" stroke-width="1" fill="none" opacity="0.19"/><path d="M 0,716.4 L 48,704.6 L 96,687.3 L 144,665.1 L 192,638.4 L 240,608.0 L 288,574.6 L 336,539.1 L 384,502.2 L 432,464.9 L 480,428.1 L 528,392.8 L 576,359.8 L 624,329.8 L 672,303.7 L 720,282.1 L 768,265.6 L 816,254.4 L 864,249.0 L 912,249.3 L 960,255.6 L 1008,267.4 L 1056,284.7 L 1104,306.9 L 1152,333.6 L 1200,364.0 L 1248,397.4 L 1296,432.9 L 1344,469.8 L 1392,507.1 L 1440,543.9 L 1488,579.2 L 1536,612.2 L 1584,642.2 L 1632,668.3 L 1680,689.9 L 1728,706.4 L 1776,717.6 L 1824,723.0 L 1872,722.7 L 1920,716.4" stroke="#6f6f6a" stroke-width="1" fill="none" opacity="0.16"/><path d="M 0,743.8 L 48,711.9 L 96,677.4 L 144,641.1 L 192,604.0 L 240,566.8 L 288,530.6 L 336,496.2 L 384,464.5 L 432,436.2 L 480,412.1 L 528,392.7 L 576,378.6 L 624,370.0 L 672,367.2 L 720,370.3 L 768,379.1 L 816,393.5 L 864,413.1 L 912,437.4 L 960,465.8 L 1008,497.7 L 1056,532.2 L 1104,568.5 L 1152,605.6 L 1200,642.8 L 1248,679.0 L 1296,713.4 L 1344,745.1 L 1392,773.4 L 1440,797.5 L 1488,816.9 L 1536,831.0 L 1584,839.6 L 1632,842.4 L 1680,839.3 L 1728,830.5 L 1776,816.1 L 1824,796.5 L 1872,772.2 L 1920,743.8" stroke="#6f6f6a" stroke-width="1" fill="none" opacity="0.13"/><path d="M0 893.5999999999999 Q576.0 879.5999999999999 960.0 887.5999999999999 T1920 883.5999999999999 L1920 1080 L0 1080 Z" fill="#1f2a1f" opacity="0.12"/><rect x="653" y="821" width="192" height="65" fill="#1f2a1f" opacity="0.9"/><rect x="691" y="837" width="115" height="26" fill="#9c7a4a" opacity="0.55"/><rect x="883" y="837" width="134" height="49" fill="#1f2a1f" opacity="0.9"/><rect x="910" y="849" width="81" height="19" fill="#9c7a4a" opacity="0.55"/><rect x="1114" y="832" width="173" height="54" fill="#1f2a1f" opacity="0.9"/><rect x="1148" y="845" width="104" height="22" fill="#9c7a4a" opacity="0.55"/><rect width="1920" height="1080" fill="url(#vg)"/><defs><radialGradient id="vg" cx="50%" cy="42%" r="75%"><stop offset="60%" stop-color="#f4f1ea" stop-opacity="0"/><stop offset="100%" stop-color="#252422" stop-opacity="0.18"/></radialGradient></defs><text x="1904" y="1066" text-anchor="end" font-family="Georgia, serif" font-size="38" fill="#6f6f6a" opacity="0.55" letter-spacing="1">North Ossetia · dawn</text></svg>