<svg xmlns="http://www.w3.org/2000/svg" viewBox="0 0 1600 1200" width="1600" height="1200" preserveAspectRatio="xMidYMid slice"><rect width="1600" height="1200" fill="#f4f1ea"/><path d="M 0,-1.3 L 40,-19.1 L 80,-33.0 L 120,-42.4 L 160,-47.3 L 200,-47.5 L 240,-42.9 L 280,-33.8 L 320,-20.3 L 360,-2.7 L 400,18.5 L 440,42.8 L 480,69.5 L 520,98.1 L 560,127.9 L 600,158.0 L 640,187.8 L 680,216.5 L 720,243.4 L 760,267.9 L 800,289.3 L 840,307.1 L 880,321.0 L 920,330.4 L 960,335.3 L 1000,335.5 L 1040,330.9 L 1080,321.8 L 1120,308.3 L 1160,290.7 L 1200,269.5 L 1240,245.2 L 1280,218.5 L 1320,189.9 L 1360,160.1 L 1400,130.0 L 1440,100.2 L 1480,71.5 L 1520,44.6 L 1560,20.1 L 1600,-1.3" stroke="#8a6f53" stroke-width="1" fill="none" opacity="0.50"/><path d="M 0,84.0 L 40,86.0 L 80,92.7 L 120,103.9 L 160,119.3 L 200,138.6 L 240,161.2 L 280,186.7 L 320,214.4 L 360,243.6 L 400,273.6 L 440,303.7 L 480,333.1 L 520,361.0 L 560,386.9 L 600,410.1 L 640,429.9 L 680,446.0 L 720,457.9 L 760,465.2 L 800,468.0 L 840,466.0 L 880,459.3 L 920,448.1 L 960,432.7 L 1000,413.4 L 1040,390.8 L 1080,365.3 L 1120,337.6 L 1160,308.4 L 1200,278.4 L 1240,248.3 L 1280,218.9 L 1320,191.0 L 1360,165.1 L 1400,141.9 L 1440,122.1 L 1480,106.0 L 1520,94.1 L 1560,86.8 L 1600,84.0" stroke="#8a6f53" stroke-width="1" fill="none" opacity="0.44"/><path d="M 0,259.6 L 40,280.5 L 80,304.5 L 120,331.1 L 160,359.6 L 200,389.3 L 240,419.4 L 280,449.2 L 320,478.0 L 360,505.2 L 400,529.9 L 440,551.6 L 480,569.7 L 520,583.9 L 560,593.8 L 600,599.1 L 640,599.7 L 680,595.5 L 720,586.8 L 760,573.6 L 800,556.4 L 840,535.5 L 880,511.5 L 920,484.9 L 960,456.4 L 1000,426.7 L 1040,396.6 L 1080,366.8 L 1120,338.0 L 1160,310.8 L 1200,286.1 L 1240,264.4 L 1280,246.3 L 1320,232.1 L 1360,222.2 L 1400,216.9 L 1440,216.3 L 1480,220.5 L 1520,229.2 L 1560,242.4 L 1600,259.6" stroke="#8a6f53" stroke-width="1" fill="none" opacity="0.38"/><path d="M 0,505.0 L 40,535.0 L 80,565.1 L 120,594.5 L 160,622.7 L 200,648.8 L 240,672.2 L 280,692.3 L 320,708.7 L 360,721.0 L 400,728.8 L 440,731.9 L 480,730.4 L 520,724.1 L 560,713.3 L 600,698.2 L 640,679.3 L 680,656.9 L 720,631.6 L 760,604.1 L 800,575.0 L 840,545.0 L 880,514.9 L 920,485.5 L 960,457.3 L 1000,431.2 L 1040,407.8 L 1080,387.7 L 1120,371.3 L 1160,359.0 L 1200,351.2 L 1240,348.1 L 1280,349.6 L 1320,355.9 L 1360,366.7 L 1400,381.8 L 1440,400.7 L 1480,423.1 L 1520,448.4 L 1560,475.9 L 1600,505.0" stroke="#8a6f53" stroke-width="1" fill="none" opacity="0.32"/><path d="M 0,766.9 L 40,791.8 L 80,813.8 L 120,832.3 L 160,846.9 L 200,857.1 L 240,862.8 L 280,863.8 L 320,860.1 L 360,851.7 L 400,838.9 L 440,822.0 L 480,801.4 L 520,777.7 L 560,751.3 L 600,723.0 L 640,693.4 L 680,663.3 L 720,633.4 L 760,604.4 L 800,577.1 L 840,552.2 L 880,530.2 L 920,511.7 L 960,497.1 L 1000,486.9 L 1040,481.2 L 1080,480.2 L 1120,483.9 L 1160,492.3 L 1200,505.1 L 1240,522.0 L 1280,542.6 L 1320,566.3 L 1360,592.7 L 1400,621.0 L 1440,650.6 L 1480,680.7 L 1520,710.6 L 1560,739.6 L 1600,766.9" stroke="#8a6f53" stroke-width="1" fill="none" opacity="0.26"/><path d="M 0,984.1 L 40,992.3 L 80,995.8 L 120,994.7 L 160,988.8 L 200,978.4 L 240,963.7 L 280,945.1 L 320,922.9 L 360,897.9 L 400,870.6 L 440,841.6 L 480,811.6 L 520,781.5 L 560,752.0 L 600,723.7 L 640,697.4 L 680,673.7 L 720,653.3 L 760,636.5 L 800,623.9 L 840,615.7 L 880,612.2 L 920,613.3 L 960,619.2 L 1000,629.6 L 1040,644.3 L 1080,662.9 L 1120,685.1 L 1160,710.1 L 1200,737.4 L 1240,766.4 L 1280,796.4 L 1320,826.5 L 1360,856.0 L 1400,884.3 L 1440,910.6 L 1480,934.3 L 1520,954.7 L 1560,971.5 L 1600,984.1" stroke="#8a6f53" stroke-width="1" fill="none" opacity="0.20"/><path d="M 0,1116.6 L 40,1104.2 L 80,1087.7 L 120,1067.4 L 160,1043.8 L 200,1017.7 L 240,989.5 L 280,960.0 L 320,929.9 L 360,899.9 L 400,870.9 L 440,843.4 L 480,818.3 L 520,796.0 L 560,777.2 L 600,762.2 L 640,751.6 L 680,745.5 L 720,744.1 L 760,747.4 L 800,755.4 L 840,767.8 L 880,784.3 L 920,804.6 L 960,828.2 L 1000,854.3 L 1040,882.5 L 1080,912.0 L 1120,942.1 L 1160,972.1 L 1200,1001.1 L 1240,1028.6 L 1280,1053.7 L 1320,1076.0 L 1360,1094.8 L 1400,1109.8 L 1440,1120.4 L 1480,1126.5 L 1520,1127.9 L 1560,1124.6 L 1600,1116.6" stroke="#8a6f53" stroke-width="1" fill="none" opacity="0.14"/><path d="M 0,1164.2 L 40,1137.0 L 80,1108.1 L 120,1078.3 L 160,1048.2 L 200,1018.5 L 240,990.1 L 280,963.6 L 320,939.7 L 360,918.9 L 400,901.8 L 440,888.8 L 480,880.2 L 520,876.3 L 560,877.0 L 600,882.5 L 640,892.5 L 680,906.9 L 720,925.2 L 760,947.0 L 800,971.8 L 840,999.0 L 880,1027.9 L 920,1057.7 L 960,1087.8 L 1000,1117.5 L 1040,1145.9 L 1080,1172.4 L 1120,1196.3 L 1160,1217.1 L 1200,1234.2 L 1240,1247.2 L 1280,1255.8 L 1320,1259.7 L 1360,1259.0 L 1400,1253.5 L 1440,1243.5 L 1480,1229.1 L 1520,1210.8 L 1560,1189.0 L 1600,1164.2" stroke="#8a6f53" stroke-width="1" fill="none" opacity="0.08"/><path d="M 0,317.4 L 40,346.4 L 80,370.5 L 120,388.9 L 160,401.3 L 200,407.4 L 240,407.0 L 280,400.1 L 320,386.9 L 360,367.7 L 400,343.0 L 440,313.4 L 480,279.7 L 520,242.6 L 560,203.1 L 600,162.1 L 640,120.7 L 680,79.8 L 720,40.5 L 760,3.8 L 800,-29.4 L 840,-58.4 L 880,-82.5 L 920,-100.9 L 960,-113.3 L 1000,-119.4 L 1040,-119.0 L 1080,-112.1 L 1120,-98.9 L 1160,-79.7 L 1200,-55.0 L 1240,-25.4 L 1280,8.3 L 1320,45.4 L 1360,84.9 L 1400,125.9 L 1440,167.3 L 1480,208.2 L 1520,247.5 L 1560,284.2 L 1600,317.4" stroke="#6f6f6a" stroke-width="1" fill="none" opacity="0.25"/><path d="M 0,536.9 L 40,540.0 L 80,536.6 L 120,526.8 L 160,510.9 L 200,489.1 L 240,462.1 L 280,430.5 L 320,395.1 L 360,356.8 L 400,316.5 L 440,275.2 L 480,233.9 L 520,193.6 L 560,155.4 L 600,120.2 L 640,88.7 L 680,61.9 L 720,40.4 L 760,24.7 L 800,15.1 L 840,12.0 L 880,15.4 L 920,25.2 L 960,41.1 L 1000,62.9 L 1040,89.9 L 1080,121.5 L 1120,156.9 L 1160,195.2 L 1200,235.5 L 1240,276.8 L 1280,318.1 L 1320,358.4 L 1360,396.6 L 1400,431.8 L 1440,463.3 L 1480,490.1 L 1520,511.6 L 1560,527.3 L 1600,536.9" stroke="#6f6f6a" stroke-width="1" fill="none" opacity="0.22"/><path d="M 0,633.6 L 40,609.4 L 80,580.2 L 120,546.8 L 160,509.9 L 200,470.6 L 240,429.7 L 280,388.3 L 320,347.3 L 360,307.9 L 400,270.9 L 440,237.3 L 480,207.9 L 520,183.4 L 560,164.5 L 600,151.5 L 640,144.9 L 680,144.7 L 720,151.1 L 760,163.7 L 800,182.4 L 840,206.6 L 880,235.8 L 920,269.2 L 960,306.1 L 1000,345.4 L 1040,386.3 L 1080,427.7 L 1120,468.7 L 1160,508.1 L 1200,545.1 L 1240,578.7 L 1280,608.1 L 1320,632.6 L 1360,651.5 L 1400,664.5 L 1440,671.1 L 1480,671.3 L 1520,664.9 L 1560,652.3 L 1600,633.6" stroke="#6f6f6a" stroke-width="1" fill="none" opacity="0.19"/><path d="M 0,624.2 L 40,584.1 L 80,542.8 L 120,501.5 L 160,461.1 L 200,422.7 L 240,387.1 L 280,355.3 L 320,328.1 L 360,306.1 L 400,289.8 L 440,279.7 L 480,276.0 L 520,278.8 L 560,288.1 L 600,303.5 L 640,324.8 L 680,351.4 L 720,382.6 L 760,417.7 L 800,455.8 L 840,495.9 L 880,537.2 L 920,578.5 L 960,618.9 L 1000,657.3 L 1040,692.9 L 1080,724.7 L 1120,751.9 L 1160,773.9 L 1200,790.2 L 1240,800.3 L 1280,804.0 L 1320,801.2 L 1360,791.9 L 1400,776.5 L 1440,755.2 L 1480,728.6 L 1520,697.4 L 1560,662.3 L 1600,624.2" stroke="#6f6f6a" stroke-width="1" fill="none" opacity="0.16"/><path d="M 0,575.2 L 40,538.0 L 80,504.1 L 120,474.3 L 160,449.3 L 200,429.9 L 240,416.4 L 280,409.2 L 320,408.5 L 360,414.3 L 400,426.4 L 440,444.5 L 480,468.3 L 520,497.1 L 560,530.1 L 600,566.7 L 640,605.9 L 680,646.7 L 720,688.1 L 760,729.1 L 800,768.8 L 840,806.0 L 880,839.9 L 920,869.7 L 960,894.7 L 1000,914.1 L 1040,927.6 L 1080,934.8 L 1120,935.5 L 1160,929.7 L 1200,917.6 L 1240,899.5 L 1280,875.7 L 1320,846.9 L 1360,813.9 L 1400,777.3 L 1440,738.1 L 1480,697.3 L 1520,655.9 L 1560,614.9 L 1600,575.2" stroke="#6f6f6a" stroke-width="1" fill="none" opacity="0.13"/><path d="M0 991.9999999999999 Q480.0 977.9999999999999 800.0 985.9999999999999 T1600 981.9999999999999 L1600 1200 L0 1200 Z" fill="#1f2a1f" opacity="0.12"/><rect x="544" y="912" width="160" height="72" fill="#1f2a1f" opacity="0.9"/><rect x="576" y="930" width="96" height="29" fill="#9c7a4a" opacity="0.55"/><rect x="736" y="930" width="112" height="54" fill="#1f2a1f" opacity="0.9"/><rect x="758" y="943" width="67" height="22" fill="#9c7a4a" opacity="0.55"/><rect x="928" y="924" width="144" height="60" fill="#1f2a1f" opacity="0.9"/><rect x="957" y="939" width="86" height="24" fill="#9c7a4a" opacity="0.55"/><rect width="1600" height="1200" fill="url(#vg)"/><defs><radialGradient id="vg" cx="50%" cy="42%" r="75%"><stop offset="60%" stop-color="#f4f1ea" stop-opacity="0"/><stop offset="100%" stop-color="#252422" stop-opacity="0.18"/></radialGradient></defs><text x="1584" y="1186" text-anchor="end" font-family="Georgia, serif" font-size="42" fill="#6f6f6a" opacity="0.55" letter-spacing="1">MOUNT · daylight</text></svg>